<svg width="605" height="190" viewBox="0 0 605 190" fill="none" xmlns="http://www.w3.org/2000/svg">
<g clip-path="url(#clip0_1921_36)">
<path fill-rule="evenodd" clip-rule="evenodd" d="M448.313 49.375C437.511 49.375 427.151 53.6661 419.513 61.3043C411.875 68.9425 407.583 79.3021 407.583 90.1042C407.583 100.906 411.875 111.266 419.513 118.904C427.151 126.542 437.511 130.833 448.313 130.833H450.708V135.577C450.708 136.213 450.834 136.843 451.077 137.43C451.321 138.018 451.678 138.551 452.128 139.001C452.577 139.45 453.112 139.807 453.699 140.05C454.287 140.293 454.917 140.417 455.553 140.417C467.34 140.407 479.281 136.473 488.342 128.418C497.485 120.282 503.407 108.193 503.417 92.5431V90.1042C503.417 79.3021 499.126 68.9425 491.487 61.3043C483.849 53.6661 473.49 49.375 462.688 49.375H448.313ZM472.271 82.9167C474.177 82.9167 476.005 83.6739 477.353 85.0218C478.701 86.3698 479.458 88.1979 479.458 90.1042C479.458 92.0104 478.701 93.8386 477.353 95.1865C476.005 96.5344 474.177 97.2917 472.271 97.2917C470.365 97.2917 468.536 96.5344 467.189 95.1865C465.841 93.8386 465.083 92.0104 465.083 90.1042C465.083 88.1979 465.841 86.3698 467.189 85.0218C468.536 83.6739 470.365 82.9167 472.271 82.9167ZM438.729 82.9167C440.635 82.9167 442.464 83.6739 443.812 85.0218C445.159 86.3698 445.917 88.1979 445.917 90.1042C445.917 92.0104 445.159 93.8386 443.812 95.1865C442.464 96.5344 440.635 97.2917 438.729 97.2917C436.823 97.2917 434.995 96.5344 433.647 95.1865C432.299 93.8386 431.542 92.0104 431.542 90.1042C431.542 88.1979 432.299 86.3698 433.647 85.0218C434.995 83.6739 436.823 82.9167 438.729 82.9167Z" fill="#818CF8"/>
</g>
<path d="M14.208 64.408C12.2453 64.408 10.5387 63.7253 9.088 62.36C7.63733 60.9093 6.912 59.2027 6.912 57.24V56.856C6.912 54.8933 7.63733 53.1867 9.088 51.736C10.5387 50.2853 12.2453 49.56 14.208 49.56H68.736C70.6987 49.56 72.4053 50.2853 73.856 51.736C75.3067 53.1867 76.032 54.8933 76.032 56.856V57.24C76.032 59.2027 75.3067 60.9093 73.856 62.36C72.4053 63.7253 70.6987 64.408 68.736 64.408H51.584C50.9013 64.408 50.56 64.792 50.56 65.56V135.704C50.56 137.667 49.8347 139.373 48.384 140.824C46.9333 142.275 45.2267 143 43.264 143H39.68C37.7173 143 36.0107 142.275 34.56 140.824C33.1093 139.373 32.384 137.667 32.384 135.704V65.56C32.384 64.792 32.0427 64.408 31.36 64.408H14.208ZM128.307 144.28C114.568 144.28 103.432 140.013 94.899 131.48C86.451 122.861 82.227 111.128 82.227 96.28C82.227 81.2613 86.451 69.528 94.899 61.08C103.347 52.5467 115.038 48.28 129.971 48.28C136.115 48.28 141.704 48.7067 146.739 49.56C148.787 49.9013 150.494 50.9253 151.859 52.632C153.224 54.2533 153.907 56.1307 153.907 58.264V58.776C153.907 60.568 153.182 62.0187 151.731 63.128C150.28 64.2373 148.659 64.5787 146.867 64.152C141.832 63.0427 136.84 62.488 131.891 62.488C121.566 62.488 113.715 65.3467 108.339 71.064C103.048 76.696 100.403 85.1013 100.403 96.28C100.403 107.117 103.006 115.48 108.211 121.368C113.502 127.171 120.627 130.072 129.587 130.072C133.256 130.072 136.883 129.56 140.467 128.536C141.15 128.365 141.491 127.896 141.491 127.128V101.784C141.491 101.016 141.15 100.632 140.467 100.632H124.467C122.59 100.632 120.968 99.992 119.603 98.712C118.323 97.3467 117.683 95.7253 117.683 93.848C117.683 91.8853 118.323 90.264 119.603 88.984C120.968 87.6187 122.59 86.936 124.467 86.936H151.347C153.31 86.936 155.016 87.6613 156.467 89.112C157.918 90.5627 158.643 92.2693 158.643 94.232V131.48C158.643 133.699 158.003 135.704 156.723 137.496C155.443 139.288 153.779 140.483 151.731 141.08C144.478 143.213 136.67 144.28 128.307 144.28ZM216.381 144.28C202.898 144.28 192.189 140.141 184.253 131.864C176.402 123.501 172.477 111.64 172.477 96.28C172.477 81.0907 176.274 69.3147 183.869 60.952C191.549 52.504 202.258 48.28 215.997 48.28C222.312 48.28 227.602 48.664 231.869 49.432C233.917 49.7733 235.624 50.7973 236.989 52.504C238.354 54.2107 239.037 56.1307 239.037 58.264V59.288C239.037 61.08 238.269 62.488 236.733 63.512C235.282 64.536 233.704 64.8347 231.997 64.408C227.816 63.2987 223.122 62.744 217.917 62.744C209.469 62.744 202.813 65.6453 197.949 71.448C193.17 77.2507 190.781 85.528 190.781 96.28C190.781 106.947 193.256 115.224 198.205 121.112C203.24 126.915 209.938 129.816 218.301 129.816C223.933 129.816 228.754 129.304 232.765 128.28C234.472 127.853 236.05 128.152 237.501 129.176C239.037 130.2 239.805 131.608 239.805 133.4V134.296C239.805 136.429 239.122 138.349 237.757 140.056C236.477 141.677 234.77 142.659 232.637 143C227.773 143.853 222.354 144.28 216.381 144.28ZM277.026 101.528V128.408C277.026 129.091 277.41 129.517 278.178 129.688C281.165 130.115 283.981 130.328 286.626 130.328C293.709 130.328 298.871 129.048 302.114 126.488C305.442 123.843 307.106 119.832 307.106 114.456C307.106 109.677 305.186 106.179 301.346 103.96C297.591 101.656 291.319 100.504 282.53 100.504H278.05C277.367 100.504 277.026 100.845 277.026 101.528ZM277.026 64.152V86.04C277.026 86.808 277.367 87.192 278.05 87.192H281.762C289.698 87.192 295.415 86.1253 298.914 83.992C302.498 81.7733 304.29 78.5307 304.29 74.264C304.29 70.168 302.839 67.1387 299.938 65.176C297.037 63.2133 292.301 62.232 285.73 62.232C282.743 62.232 280.183 62.4027 278.05 62.744C277.367 62.9147 277.026 63.384 277.026 64.152ZM266.53 143.256C264.482 143.085 262.775 142.232 261.41 140.696C260.045 139.075 259.362 137.197 259.362 135.064V57.496C259.362 55.3627 260.045 53.528 261.41 51.992C262.775 50.3707 264.525 49.4747 266.658 49.304C272.973 48.6213 279.074 48.28 284.962 48.28C308.855 48.28 320.802 56.088 320.802 71.704C320.802 76.9093 319.053 81.432 315.554 85.272C312.055 89.112 307.447 91.5867 301.73 92.696C301.645 92.696 301.602 92.7387 301.602 92.824C301.602 92.9947 301.645 93.08 301.73 93.08C308.727 94.104 314.189 96.7067 318.114 100.888C322.125 104.984 324.13 110.061 324.13 116.12C324.13 125.507 321.058 132.547 314.914 137.24C308.77 141.933 299.213 144.28 286.242 144.28C279.757 144.28 273.186 143.939 266.53 143.256ZM345.78 143C343.817 143 342.111 142.275 340.66 140.824C339.295 139.373 338.612 137.667 338.612 135.704V56.856C338.612 54.8933 339.295 53.1867 340.66 51.736C342.111 50.2853 343.817 49.56 345.78 49.56H349.876C351.839 49.56 353.545 50.2853 354.996 51.736C356.447 53.1867 357.172 54.8933 357.172 56.856V127C357.172 127.768 357.513 128.152 358.196 128.152H391.092C393.055 128.152 394.719 128.877 396.084 130.328C397.535 131.693 398.26 133.357 398.26 135.32V135.704C398.26 137.667 397.535 139.373 396.084 140.824C394.719 142.275 393.055 143 391.092 143H345.78ZM564.682 144.28C550.943 144.28 539.807 140.013 531.274 131.48C522.826 122.861 518.602 111.128 518.602 96.28C518.602 81.2613 522.826 69.528 531.274 61.08C539.722 52.5467 551.413 48.28 566.346 48.28C572.49 48.28 578.079 48.7067 583.114 49.56C585.162 49.9013 586.869 50.9253 588.234 52.632C589.599 54.2533 590.282 56.1307 590.282 58.264V58.776C590.282 60.568 589.557 62.0187 588.106 63.128C586.655 64.2373 585.034 64.5787 583.242 64.152C578.207 63.0427 573.215 62.488 568.266 62.488C557.941 62.488 550.09 65.3467 544.714 71.064C539.423 76.696 536.778 85.1013 536.778 96.28C536.778 107.117 539.381 115.48 544.586 121.368C549.877 127.171 557.002 130.072 565.962 130.072C569.631 130.072 573.258 129.56 576.842 128.536C577.525 128.365 577.866 127.896 577.866 127.128V101.784C577.866 101.016 577.525 100.632 576.842 100.632H560.842C558.965 100.632 557.343 99.992 555.978 98.712C554.698 97.3467 554.058 95.7253 554.058 93.848C554.058 91.8853 554.698 90.264 555.978 88.984C557.343 87.6187 558.965 86.936 560.842 86.936H587.722C589.685 86.936 591.391 87.6613 592.842 89.112C594.293 90.5627 595.018 92.2693 595.018 94.232V131.48C595.018 133.699 594.378 135.704 593.098 137.496C591.818 139.288 590.154 140.483 588.106 141.08C580.853 143.213 573.045 144.28 564.682 144.28Z" fill="#0E7490"/>
<defs>
<clipPath id="clip0_1921_36">
<rect width="115" height="115" fill="white" transform="matrix(-1 0 0 1 513 35)"/>
</clipPath>
</defs>
</svg>
