<svg width="64" height="64" viewBox="0 0 64 64" fill="none" xmlns="http://www.w3.org/2000/svg">
<g clip-path="url(#clip0_1940_2)">
<path d="M32 64C49.6731 64 64 49.6731 64 32C64 14.3269 49.6731 0 32 0C14.3269 0 0 14.3269 0 32C0 49.6731 14.3269 64 32 64Z" fill="#059669"/>
<path d="M31.7634 25.8479C31.6634 24.9479 32.1634 24.0479 33.0634 24.2479C33.7634 24.3479 34.5634 25.0479 34.1634 25.7479C33.5634 26.8479 31.9634 26.8479 30.9634 27.4479C31.0634 28.0479 33.9634 27.3479 34.4634 27.3479C34.9634 27.3479 35.4634 27.5479 35.1634 28.1479C34.8634 28.7479 33.8634 28.7479 33.2634 28.8479C32.6634 28.9479 31.6634 28.9479 31.3634 29.4479C30.7634 30.2479 31.9634 30.3479 32.3634 30.5479C33.3634 31.0479 31.7634 31.5479 31.3634 31.4479C29.8634 31.1479 29.5634 30.3479 28.6634 29.3479C27.7634 30.5479 24.9634 33.2479 24.3634 30.4479C23.3634 30.8479 22.3634 31.3479 21.2634 31.4479C21.7634 30.7479 22.7634 30.4479 23.5634 30.0479C24.5634 29.5479 24.5634 28.6479 25.1634 27.8479C25.3634 28.1479 25.1634 28.5479 25.2634 28.9479C26.0634 28.5479 27.0634 27.7479 26.6634 26.7479C26.6634 26.6479 25.4634 24.2479 26.4634 24.6479C27.3634 25.0479 27.0634 25.9479 27.2634 26.6479C27.5634 27.9479 26.9634 28.6479 25.9634 29.4479C25.5634 29.7479 24.4634 30.9479 25.7634 30.9479C26.6634 30.9479 27.4634 29.9479 27.9634 29.3479C28.5634 28.5479 28.3634 27.7479 27.9634 26.8479C27.6634 26.1479 26.9634 24.6479 27.8634 24.1479C28.5634 25.2479 28.8634 26.5479 29.1634 27.8479C29.3634 28.9479 29.5634 30.0479 30.7634 30.3479C30.6634 29.5479 31.1634 28.9479 31.8634 28.6479C31.3634 28.2479 28.5634 28.7479 29.6634 27.2479C29.7634 26.5479 31.7634 26.2479 31.7634 25.8479Z" fill="white"/>
<path d="M16.4634 29.5479C16.9634 30.9479 18.6634 30.4479 19.6634 30.0479C21.2634 29.2479 21.2634 28.0479 21.2634 26.4479C20.6634 26.7479 20.7634 27.8479 20.5634 28.3479C20.1634 29.1479 18.8634 29.8479 17.9634 29.7479C16.6634 29.5479 16.0634 27.3479 17.0634 26.5479C17.2634 27.2479 16.7634 28.7479 17.9634 28.8479C18.8634 28.9479 20.6634 27.8479 20.3634 26.8479C19.1634 27.2479 18.4634 26.8479 18.8634 25.5479C19.1634 24.3479 20.3634 25.2479 20.8634 25.8479C22.7634 24.7479 19.3634 20.5479 21.3634 19.4479C21.7634 20.1479 22.3634 21.0479 21.8634 21.7479C21.2634 22.5479 21.8634 24.2479 21.9634 25.1479C22.9634 24.2479 22.1634 25.8479 22.9634 25.9479C23.4634 26.0479 23.6634 24.7479 23.9634 24.7479C24.0634 25.0479 24.0634 25.9479 24.5634 25.8479C25.1634 25.6479 24.4634 24.8479 25.0634 24.6479C25.2634 25.1479 25.1634 26.6479 24.4634 26.5479C23.8634 26.4479 23.9634 26.0479 23.2634 26.4479C22.6634 26.7479 22.4634 26.4479 22.0634 26.1479C21.9634 27.3479 22.3634 28.6479 21.6634 29.7479C21.0634 30.6479 19.8634 31.1479 18.8634 31.3479C16.2634 31.8479 15.5634 29.2479 16.4634 27.1479C16.6634 27.7479 16.2634 28.8479 16.4634 29.5479ZM40.8634 30.0479C41.3634 31.3479 42.3634 28.6479 42.6634 28.2479C43.4634 27.0479 44.6634 30.1479 45.1634 28.1479C45.4634 26.8479 45.0634 25.5479 44.9634 24.2479C44.8634 23.3479 44.5634 22.5479 43.9634 21.8479C43.3634 21.0479 42.7634 20.3479 43.0634 19.3479C44.0634 19.7479 44.0634 20.5479 44.5634 21.3479C44.6634 20.7479 44.2634 19.9479 44.6634 19.4479C45.1634 18.7479 45.5634 20.6479 45.5634 20.8479C45.6634 21.3479 45.1634 21.5479 45.4634 22.3479C45.6634 22.9479 46.0634 23.5479 46.4634 24.0479C46.3634 23.4479 45.4634 19.3479 46.4634 19.3479C46.7634 19.3479 47.0634 20.5479 47.0634 20.7479C47.2634 21.3479 46.8634 21.8479 46.8634 22.5479C46.7634 23.7479 46.9634 25.1479 47.7634 26.0479C48.1634 26.5479 49.6633 28.3479 48.8633 28.9479C48.2633 28.2479 47.8634 27.4479 47.3634 26.7479C47.3634 27.5479 47.5634 28.4479 47.1634 29.0479C46.7634 28.8479 46.9634 27.5479 46.9634 27.2479C46.9634 26.1479 46.2634 25.2479 45.6634 24.3479C45.4634 25.8479 46.6634 28.6479 45.2634 29.7479C44.3634 30.5479 43.1634 28.7479 42.8634 29.4479C42.5634 29.9479 41.8634 31.7479 41.0634 31.5479C40.0634 31.3479 39.3634 28.5479 40.4634 28.2479C40.5634 28.7479 40.5634 29.4479 40.8634 30.0479Z" fill="white"/>
<path d="M19.4634 23.2479C20.1634 23.3479 19.4634 20.9479 19.4634 20.5479C19.5634 20.1479 19.8634 19.9479 20.0634 20.3479C20.3634 20.9479 20.3634 21.6479 20.4634 22.2479C20.4634 22.7479 20.5634 23.3479 20.1634 23.7479C19.5634 24.3479 18.7634 24.0479 18.4634 23.2479C17.0634 24.4479 18.8634 26.5479 17.6634 27.7479C17.4634 26.6479 17.6634 25.4479 17.2634 24.4479C17.0634 23.9479 16.1634 24.1479 16.0634 23.2479C16.0634 22.8479 16.3634 21.7479 15.9634 21.4479C15.7634 21.8479 15.5634 24.9479 14.5634 24.0479C13.7634 23.4479 13.9634 21.4479 14.2634 20.6479C14.8634 20.9479 14.1634 23.1479 14.9634 23.2479C15.3634 23.3479 15.4634 21.6479 15.5634 21.3479C15.8634 20.8479 16.8634 19.4479 16.6634 20.8479C16.5634 21.4479 16.0634 23.3479 17.2634 23.2479C17.1634 22.2479 17.0634 21.2479 16.8634 20.2479C16.7634 19.7479 17.0634 18.7479 17.4634 19.6479C17.7634 20.2479 17.5634 20.5479 17.4634 21.1479C17.3634 21.8479 17.6634 22.5479 17.7634 23.1479C18.3634 22.6479 17.5634 20.7479 18.0634 19.9479C19.2634 20.6479 17.9634 23.0479 19.4634 23.2479ZM32.3634 23.4479C31.8634 24.1479 30.9634 23.5479 30.5634 23.0479C30.0634 23.6479 29.0634 24.6479 28.2634 23.8479C27.6634 23.2479 28.3634 22.1479 27.8634 21.6479C27.5634 22.1479 27.0634 24.5479 26.1634 23.4479C25.6634 22.8479 24.9634 20.7479 26.0634 20.2479C25.9634 21.0479 25.7634 21.9479 26.2634 22.6479C26.7634 23.3479 27.2634 21.5479 27.4634 21.1479C27.7634 20.4479 28.7634 19.2479 28.5634 20.7479C28.4634 21.3479 28.2634 22.7479 28.8634 23.1479C29.2634 23.4479 29.7634 22.9479 29.9634 22.6479C30.3634 22.1479 30.1634 21.3479 30.0634 20.7479C29.9634 20.2479 29.7634 19.6479 30.0634 19.1479C30.4634 18.5479 30.7634 19.9479 30.7634 20.2479C30.7634 20.5479 31.1634 23.6479 31.8634 22.6479C32.5634 21.7479 30.6634 19.7479 31.9634 19.2479C32.4634 19.0479 33.3634 21.0479 32.3634 20.4479C32.6634 21.3479 33.0634 22.6479 32.3634 23.4479ZM36.1634 24.6479C36.2634 25.9479 37.3634 29.5479 35.8634 30.3479C35.6634 29.9479 35.8634 29.3479 35.9634 28.8479C36.0634 27.9479 35.8634 27.0479 35.7634 26.2479C35.5634 24.3479 35.3634 22.9479 34.0634 21.4479C33.7634 21.0479 33.2634 20.7479 33.1634 20.1479C33.1634 19.9479 33.0634 19.0479 33.4634 19.2479C33.7634 19.3479 35.4634 20.8479 34.5634 20.8479C34.6634 21.0479 35.0634 21.8479 35.2634 21.8479C35.2634 21.3479 34.6634 19.8479 35.2634 19.5479C35.7634 19.2479 36.3634 21.1479 36.1634 21.5479C35.9634 22.0479 35.9634 22.3479 36.1634 23.0479C36.3634 23.8479 36.8634 24.5479 37.2634 25.2479C37.8634 26.2479 39.0634 27.6479 38.7634 28.9479C38.1634 28.6479 37.7634 27.2479 37.4634 26.6479C37.2634 26.1479 37.0634 25.6479 36.7634 25.2479C36.6634 25.1479 36.0634 24.3479 36.1634 24.8479V24.6479ZM50.0634 26.5479C50.1634 28.6479 49.4634 31.3479 46.8634 31.3479C46.8634 30.7479 48.1634 30.1479 48.5634 29.8479C49.5634 29.0479 49.4634 27.5479 49.3634 26.4479C49.2634 24.9479 49.1634 23.4479 48.8634 21.9479C48.7634 21.0479 48.2634 19.7479 49.0634 19.1479C49.5634 19.5479 50.2634 20.6479 49.9634 21.0479C49.4634 21.6479 49.9634 26.1479 50.0634 26.5479Z" fill="white"/>
<path d="M37.2633 31.0479C39.8633 29.5479 39.0633 26.3479 38.8633 23.8479C38.7633 23.1479 38.7633 22.4479 38.6633 21.7479C38.6633 21.2479 38.2633 20.5479 38.4633 20.0479C38.9633 18.7479 39.3633 19.9479 39.4633 20.7479C39.5633 21.2479 39.1633 21.3479 39.2633 21.7479C39.3633 22.5479 39.3633 23.3479 39.4633 24.1479C39.5633 25.4479 39.7633 26.7479 39.6633 27.9479C39.4633 29.8479 38.4633 31.9479 36.1633 31.5479C36.2633 31.3479 36.9633 31.2479 37.2633 31.0479ZM41.4633 26.0479C41.5633 27.0479 41.9633 28.8479 41.4633 29.7479C41.0633 30.3479 41.0633 29.3479 40.9633 29.2479C40.8633 28.4479 40.8633 27.6479 40.8633 26.7479C40.6633 24.5479 39.9633 22.3479 39.9633 20.2479C39.9633 17.5479 42.2633 21.7479 40.9633 21.5479C41.0633 23.0479 41.2633 24.5479 41.4633 26.0479ZM25.1633 20.9479C25.3633 21.4479 22.8633 22.7479 22.5633 22.7479C22.4633 22.2479 23.6633 21.5479 23.9633 21.3479C24.2633 21.0479 24.4633 21.0479 24.3633 20.6479C24.1633 20.2479 24.2633 19.5479 24.7633 19.3479C25.7633 19.0479 25.0633 20.5479 25.1633 20.9479ZM14.8633 29.8479C14.8633 30.6479 15.1633 30.2479 15.5633 30.0479C15.7633 30.4479 15.2633 31.5479 14.7633 31.0479C14.0633 30.3479 14.6633 28.7479 14.9633 28.0479C15.1633 28.5479 14.7633 29.3479 14.8633 29.8479ZM43.0633 23.6479C43.1633 23.2479 42.8633 22.8479 43.1633 22.4479C43.5633 21.9479 43.9633 22.5479 43.7633 22.7479C43.5633 22.9479 43.2633 22.5479 43.2633 23.1479C43.2633 23.4479 43.4633 24.0479 43.1633 24.3479C42.9633 24.2479 42.0633 22.9479 42.1633 22.7479C42.5633 22.3479 42.9633 23.5479 43.0633 23.6479ZM16.9633 25.3479C16.7633 25.7479 14.4633 27.0479 14.3633 26.7479C14.3633 26.4479 17.2633 24.7479 16.9633 25.3479ZM33.9633 30.4479C33.6633 31.3479 34.9633 30.5479 35.2633 30.4479C34.8633 31.1479 33.4633 31.7479 33.6633 30.4479C33.5633 30.4479 33.3633 30.5479 33.2633 30.5479C33.0633 30.3479 34.2633 29.5479 33.9633 30.4479ZM44.8633 30.1479C45.1633 30.1479 45.6633 31.0479 45.3633 31.2479C45.1633 31.4479 44.2633 31.5479 44.7633 31.1479C45.3633 30.5479 44.8633 30.1479 44.8633 30.1479ZM30.7633 25.0479C30.8633 24.8479 30.8633 24.5479 30.9633 24.3479C31.9633 25.1479 29.3633 26.4479 29.8633 24.5479C30.0633 24.7479 30.0633 25.0479 30.2633 25.1479C30.2633 24.9479 30.3633 24.6479 30.3633 24.4479C30.5633 24.6479 30.5633 24.9479 30.7633 25.0479ZM42.4633 26.3479C42.1633 25.9479 43.9633 24.8479 44.2633 24.6479C44.4633 24.9479 43.0633 26.0479 42.4633 26.3479ZM48.0633 22.3479C47.8633 21.7479 47.2633 20.5479 47.8633 20.0479C48.2633 20.3479 48.4633 21.8479 48.0633 22.3479ZM37.1633 20.3479C37.0633 20.1479 36.7633 19.9479 36.7633 19.6479C36.8633 19.2479 37.0633 19.3479 37.2633 19.5479C37.5633 19.9479 37.7633 21.0479 37.2633 21.3479C37.2633 21.0479 37.3633 20.6479 37.1633 20.3479ZM24.9633 23.0479C24.9633 23.6479 23.9633 24.2479 23.8633 23.4479C23.7633 23.1479 24.2633 22.0479 24.4633 22.3479C24.0633 23.2479 24.0633 23.5479 24.9633 23.0479Z" fill="white"/>
<path d="M37.4633 21.9479C37.8633 22.9479 37.6633 22.0479 38.0633 21.8479C38.7633 23.1479 36.5633 22.8479 37.0633 22.0479C37.1633 22.1479 37.2633 22.3479 37.2633 22.4479C37.3633 22.3479 37.3633 22.1479 37.4633 21.9479ZM43.8633 26.5479C43.3633 26.1479 43.9633 25.6479 44.2633 26.1479C44.4633 26.4479 44.4633 27.2479 44.0633 27.4479C44.0633 27.1479 44.1633 26.7479 43.8633 26.5479ZM23.3633 28.7479C23.3633 28.5479 23.2633 27.0479 23.5633 27.2479C23.9633 27.4479 23.8633 28.5479 23.3633 28.7479ZM19.1633 19.3479C19.2633 19.6479 19.3633 20.0479 19.5633 19.5479C20.3633 20.4479 17.5633 20.1479 18.5633 19.2479C18.5633 19.3479 18.7633 19.9479 19.1633 19.3479ZM29.3633 21.5479C29.3633 21.1479 28.7633 19.4479 29.2633 19.4479C29.8633 19.5479 29.7633 21.0479 29.3633 21.5479ZM15.3633 20.6479C15.0633 20.5479 15.5633 20.0479 15.3633 19.6479C15.1633 19.7479 14.9633 19.4479 15.1633 19.2479C15.9633 18.6479 15.6633 20.6479 15.3633 20.6479ZM41.2633 40.9479L40.8633 39.7479L40.4633 40.9479H18.5633C18.5633 40.9479 18.7633 42.7479 20.9633 42.7479H40.3633V44.1479H45.6633V40.9479H41.2633ZM44.6633 43.3479H41.0633V42.3479H44.6633V43.3479Z" fill="white"/>
</g>
<defs>
<clipPath id="clip0_1940_2">
<rect width="64" height="64" fill="white"/>
</clipPath>
</defs>
</svg>
